<?xml version="1.0" standalone="no"?>
<!DOCTYPE svg PUBLIC "-//W3C//DTD SVG 20010904//EN"
 "http://www.w3.org/TR/2001/REC-SVG-20010904/DTD/svg10.dtd">
<svg version="1.0" xmlns="http://www.w3.org/2000/svg"
 width="160.000000pt" height="160.000000pt" viewBox="0 0 160.000000 160.000000"
 preserveAspectRatio="xMidYMid meet">

<g transform="translate(0.000000,160.000000) scale(0.100000,-0.100000)"
fill="#000000" stroke="none">
<path d="M643 1324 c-18 -14 -33 -32 -33 -40 0 -8 -4 -14 -9 -14 -8 0 -21 -42
-26 -82 -1 -9 -17 -38 -34 -65 -28 -42 -32 -55 -29 -104 1 -31 -2 -63 -8 -70
-24 -31 -42 -106 -39 -159 3 -65 14 -113 27 -121 6 -4 6 -13 0 -25 -26 -48
-93 -227 -111 -295 -22 -82 -41 -223 -41 -301 l0 -48 115 0 115 0 1 78 c0 101
12 169 32 189 15 15 17 14 27 -12 6 -16 14 -80 17 -142 6 -109 7 -113 29 -113
l23 0 -2 182 c-2 177 9 280 36 332 8 16 11 14 28 -23 10 -23 26 -44 35 -48 26
-10 241 21 298 43 25 10 51 -163 51 -334 l0 -152 28 0 c26 0 27 2 27 50 0 43
3 50 19 50 72 0 187 94 214 175 20 56 22 153 5 190 -21 46 -66 31 -104 -35
-18 -29 -52 -50 -83 -50 -38 0 -101 85 -101 137 0 10 -12 43 -27 73 -14 30
-25 59 -24 63 32 144 16 255 -48 322 -33 35 -38 47 -39 90 -1 51 -15 71 -79
113 -11 8 -28 30 -39 50 -58 109 -177 155 -251 96z m58 -179 c24 -9 50 -22 59
-30 15 -14 22 -13 65 6 45 20 50 20 82 5 18 -8 33 -19 33 -24 0 -4 -20 -13
-44 -20 -46 -12 -116 -70 -116 -96 0 -18 -22 -26 -49 -19 -19 5 -20 7 -5 41
14 35 14 37 -11 61 -20 20 -36 26 -70 26 -25 0 -45 1 -45 3 0 2 7 16 15 32 18
34 26 36 86 15z m-23 -108 c3 -22 -1 -27 -18 -27 -23 0 -35 22 -26 46 10 25
41 12 44 -19z m362 -136 c22 -43 2 -101 -29 -82 -10 6 -9 10 3 14 23 9 20 48
-4 54 -11 3 -20 12 -20 19 0 21 38 17 50 -5z m-204 -56 c20 -30 12 -70 -17
-85 -22 -12 -79 -4 -79 11 0 5 11 4 25 -3 19 -8 28 -8 40 2 33 27 11 70 -36
70 -22 0 -28 -5 -32 -27 l-4 -28 -2 27 c-3 57 73 81 105 33z m168 -71 c26 -10
-32 -65 -61 -58 -18 5 -23 2 -23 -15 0 -26 41 -38 75 -23 20 9 23 9 18 -4 -7
-18 -45 -28 -77 -20 -45 11 -56 102 -14 119 19 8 64 8 82 1z m80 -243 c-5 -5
-19 -12 -31 -16 -28 -8 -29 2 -7 53 l16 37 16 -33 c10 -20 12 -36 6 -41z m-86
19 c-13 -40 -22 -44 -63 -30 -45 15 -44 27 0 36 19 3 38 10 41 15 3 5 11 9 19
9 11 0 12 -6 3 -30z m-148 -31 c77 -29 80 -33 35 -41 -68 -12 -81 -10 -93 17
-24 52 -19 53 58 24z m529 -231 c-40 -80 -99 -128 -159 -128 l-31 0 3 63 3 62
60 6 c60 6 117 28 131 51 6 9 9 9 11 1 2 -6 -6 -31 -18 -55z"/>
</g>
</svg>
